<?xml version="1.0" encoding="UTF-8"?>
<svg xmlns="http://www.w3.org/2000/svg" xmlns:xlink="http://www.w3.org/1999/xlink" width="477pt" height="282pt" viewBox="0 0 477 282" version="1.1">
<g id="surface1">
<rect x="0" y="0" width="477" height="282" style="fill:rgb(100%,100%,100%);fill-opacity:1;stroke:none;"/>
<path style="fill:none;stroke-width:0.75;stroke-linecap:round;stroke-linejoin:round;stroke:rgb(0%,0%,0%);stroke-opacity:1;stroke-miterlimit:10;" d="M 252.898438 152.3125 L 252.285156 156.285156 L 249.628906 156.285156 L 249.203125 161.367188 L 251.808594 164.945313 "/>
<path style="fill:none;stroke-width:0.75;stroke-linecap:round;stroke-linejoin:round;stroke:rgb(0%,0%,0%);stroke-opacity:1;stroke-miterlimit:10;" d="M 251.808594 164.945313 L 243.136719 165.0625 L 240.492188 164.480469 L 239.78125 164.480469 L 230.164063 164.214844 "/>
<path style="fill:none;stroke-width:0.75;stroke-linecap:round;stroke-linejoin:round;stroke:rgb(0%,0%,0%);stroke-opacity:1;stroke-miterlimit:10;" d="M 230.164063 164.214844 L 232.46875 155.863281 L 234.050781 152.417969 L 233.421875 151.164063 L 233.117188 150.683594 L 233.167969 148.234375 L 231.390625 143.878906 L 232.628906 142.964844 "/>
<path style="fill:none;stroke-width:0.75;stroke-linecap:round;stroke-linejoin:round;stroke:rgb(0%,0%,0%);stroke-opacity:1;stroke-miterlimit:10;" d="M 232.628906 142.964844 L 239.417969 143.667969 L 241.816406 147.152344 L 244.441406 146.125 L 244.5625 145.605469 L 244.640625 145.355469 L 248.332031 145.640625 L 249.570313 152.351563 L 252.898438 152.3125 "/>
<path style="fill:none;stroke-width:0.75;stroke-linecap:round;stroke-linejoin:round;stroke:rgb(0%,0%,0%);stroke-opacity:1;stroke-miterlimit:10;" d="M 231.039063 142.769531 L 231.023438 142.226563 L 230.675781 141.359375 "/>
<path style="fill:none;stroke-width:0.75;stroke-linecap:round;stroke-linejoin:round;stroke:rgb(0%,0%,0%);stroke-opacity:1;stroke-miterlimit:10;" d="M 230.675781 141.359375 L 231.574219 140.582031 L 232.636719 140.671875 "/>
<path style="fill:none;stroke-width:0.75;stroke-linecap:round;stroke-linejoin:round;stroke:rgb(0%,0%,0%);stroke-opacity:1;stroke-miterlimit:10;" d="M 232.636719 140.671875 L 231.480469 141.484375 L 231.484375 141.519531 L 231.039063 142.769531 "/>
<path style="fill:none;stroke-width:0.75;stroke-linecap:round;stroke-linejoin:round;stroke:rgb(0%,0%,0%);stroke-opacity:1;stroke-miterlimit:10;" d="M 265.152344 136.5 L 265.628906 137.992188 L 263.011719 140.324219 "/>
<path style="fill:none;stroke-width:0.75;stroke-linecap:round;stroke-linejoin:round;stroke:rgb(0%,0%,0%);stroke-opacity:1;stroke-miterlimit:10;" d="M 263.011719 140.324219 L 262.652344 138.296875 L 262.65625 138.144531 L 262.289063 137.097656 "/>
<path style="fill:none;stroke-width:0.75;stroke-linecap:round;stroke-linejoin:round;stroke:rgb(0%,0%,0%);stroke-opacity:1;stroke-miterlimit:10;" d="M 262.289063 137.097656 L 263.921875 136.992188 L 264.292969 136.519531 L 265.152344 136.5 "/>
<path style="fill:none;stroke-width:0.75;stroke-linecap:round;stroke-linejoin:round;stroke:rgb(0%,0%,0%);stroke-opacity:1;stroke-miterlimit:10;" d="M 215.007813 110.191406 L 214.5625 113.707031 L 214.15625 114.378906 L 213.355469 120.132813 "/>
<path style="fill:none;stroke-width:0.75;stroke-linecap:round;stroke-linejoin:round;stroke:rgb(0%,0%,0%);stroke-opacity:1;stroke-miterlimit:10;" d="M 213.355469 120.132813 L 212.574219 120.210938 L 211.703125 120.335938 L 211.339844 120.417969 "/>
<path style="fill:none;stroke-width:0.75;stroke-linecap:round;stroke-linejoin:round;stroke:rgb(0%,0%,0%);stroke-opacity:1;stroke-miterlimit:10;" d="M 211.339844 120.417969 L 211.304688 115.648438 L 211.296875 115.128906 L 209.996094 111.503906 "/>
<path style="fill:none;stroke-width:0.75;stroke-linecap:round;stroke-linejoin:round;stroke:rgb(0%,0%,0%);stroke-opacity:1;stroke-miterlimit:10;" d="M 209.996094 111.503906 L 210.703125 110.976563 L 212.765625 109.816406 "/>
<path style="fill:none;stroke-width:0.75;stroke-linecap:round;stroke-linejoin:round;stroke:rgb(0%,0%,0%);stroke-opacity:1;stroke-miterlimit:10;" d="M 212.765625 109.816406 L 213.539063 108.90625 L 215.007813 110.191406 "/>
<path style="fill:none;stroke-width:0.75;stroke-linecap:round;stroke-linejoin:round;stroke:rgb(0%,0%,0%);stroke-opacity:1;stroke-miterlimit:10;" d="M 208.726563 104.1875 L 210.136719 107.152344 L 210.132813 107.4375 L 211.429688 108.464844 L 212.765625 109.816406 "/>
<path style="fill:none;stroke-width:0.75;stroke-linecap:round;stroke-linejoin:round;stroke:rgb(0%,0%,0%);stroke-opacity:1;stroke-miterlimit:10;" d="M 209.996094 111.503906 L 209.238281 111.574219 L 209.234375 111.53125 L 208.320313 111.300781 "/>
<path style="fill:none;stroke-width:0.75;stroke-linecap:round;stroke-linejoin:round;stroke:rgb(0%,0%,0%);stroke-opacity:1;stroke-miterlimit:10;" d="M 208.320313 111.300781 L 208.195313 111.273438 "/>
<path style="fill:none;stroke-width:0.75;stroke-linecap:round;stroke-linejoin:round;stroke:rgb(0%,0%,0%);stroke-opacity:1;stroke-miterlimit:10;" d="M 208.195313 111.273438 L 204.171875 111.503906 L 203.65625 111.511719 L 203.308594 114.324219 "/>
<path style="fill:none;stroke-width:0.75;stroke-linecap:round;stroke-linejoin:round;stroke:rgb(0%,0%,0%);stroke-opacity:1;stroke-miterlimit:10;" d="M 203.308594 114.324219 L 200.542969 113.761719 L 198.046875 112.5625 "/>
<path style="fill:none;stroke-width:0.75;stroke-linecap:round;stroke-linejoin:round;stroke:rgb(0%,0%,0%);stroke-opacity:1;stroke-miterlimit:10;" d="M 198.046875 112.5625 L 199.398438 109.5625 L 200.980469 107.007813 L 201.152344 107.058594 L 206.90625 103.933594 L 208.320313 104.046875 "/>
<path style="fill:none;stroke-width:0.75;stroke-linecap:round;stroke-linejoin:round;stroke:rgb(0%,0%,0%);stroke-opacity:1;stroke-miterlimit:10;" d="M 208.320313 104.046875 L 208.335938 104.050781 L 208.726563 104.1875 "/>
<path style="fill:none;stroke-width:0.75;stroke-linecap:round;stroke-linejoin:round;stroke:rgb(0%,0%,0%);stroke-opacity:1;stroke-miterlimit:10;" d="M 255.300781 165.230469 L 258.386719 169.332031 L 259.703125 170.25 L 259.820313 170.933594 L 262.9375 173.445313 "/>
<path style="fill:none;stroke-width:0.75;stroke-linecap:round;stroke-linejoin:round;stroke:rgb(0%,0%,0%);stroke-opacity:1;stroke-miterlimit:10;" d="M 262.9375 173.445313 L 256.253906 178.953125 L 253.996094 180.140625 L 253.574219 180.066406 L 252.070313 179.324219 L 249.410156 181.628906 L 246.675781 181.632813 L 245.484375 178.265625 "/>
<path style="fill:none;stroke-width:0.75;stroke-linecap:round;stroke-linejoin:round;stroke:rgb(0%,0%,0%);stroke-opacity:1;stroke-miterlimit:10;" d="M 245.484375 178.265625 L 245.902344 173.082031 L 247.34375 172.679688 L 247.8125 166.1875 L 249.261719 165.988281 L 251.957031 166.046875 L 255.300781 165.230469 "/>
<path style="fill:none;stroke-width:0.75;stroke-linecap:round;stroke-linejoin:round;stroke:rgb(0%,0%,0%);stroke-opacity:1;stroke-miterlimit:10;" d="M 250.839844 111.640625 L 252.210938 114.734375 L 253.234375 115.847656 "/>
<path style="fill:none;stroke-width:0.75;stroke-linecap:round;stroke-linejoin:round;stroke:rgb(0%,0%,0%);stroke-opacity:1;stroke-miterlimit:10;" d="M 253.234375 115.847656 L 256.84375 119.195313 L 256.996094 119.363281 L 259.292969 122.484375 "/>
<path style="fill:none;stroke-width:0.75;stroke-linecap:round;stroke-linejoin:round;stroke:rgb(0%,0%,0%);stroke-opacity:1;stroke-miterlimit:10;" d="M 259.292969 122.484375 L 258.578125 122.34375 L 257.003906 122.367188 L 255.566406 122.210938 L 250.390625 123.722656 L 250.179688 124.167969 L 244.261719 122.554688 L 242.9375 125.527344 "/>
<path style="fill:none;stroke-width:0.75;stroke-linecap:round;stroke-linejoin:round;stroke:rgb(0%,0%,0%);stroke-opacity:1;stroke-miterlimit:10;" d="M 242.9375 125.527344 L 240.753906 125.144531 L 240.496094 125.269531 L 239.945313 125.382813 L 238.421875 127.785156 "/>
<path style="fill:none;stroke-width:0.75;stroke-linecap:round;stroke-linejoin:round;stroke:rgb(0%,0%,0%);stroke-opacity:1;stroke-miterlimit:10;" d="M 238.421875 127.785156 L 235.679688 123.3125 L 235.507813 121.074219 L 237.113281 117.976563 "/>
<path style="fill:none;stroke-width:0.75;stroke-linecap:round;stroke-linejoin:round;stroke:rgb(0%,0%,0%);stroke-opacity:1;stroke-miterlimit:10;" d="M 237.113281 117.976563 L 243.738281 115.988281 L 243.453125 115.429688 L 243.578125 115.335938 L 244.808594 115.179688 L 249.929688 111.578125 L 250.839844 111.640625 "/>
<path style="fill:none;stroke-width:0.75;stroke-linecap:round;stroke-linejoin:round;stroke:rgb(0%,0%,0%);stroke-opacity:1;stroke-miterlimit:10;" d="M 202.582031 122.449219 L 202.53125 122.523438 "/>
<path style="fill:none;stroke-width:0.75;stroke-linecap:round;stroke-linejoin:round;stroke:rgb(0%,0%,0%);stroke-opacity:1;stroke-miterlimit:10;" d="M 202.53125 122.523438 L 202.28125 122.476563 L 202.339844 122.414063 L 202.582031 122.449219 "/>
<path style="fill:none;stroke-width:0.75;stroke-linecap:round;stroke-linejoin:round;stroke:rgb(0%,0%,0%);stroke-opacity:1;stroke-miterlimit:10;" d="M 203.308594 114.324219 L 202.773438 118.464844 L 202.707031 122.445313 "/>
<path style="fill:none;stroke-width:0.75;stroke-linecap:round;stroke-linejoin:round;stroke:rgb(0%,0%,0%);stroke-opacity:1;stroke-miterlimit:10;" d="M 202.707031 122.445313 L 199.652344 122.367188 L 199.207031 122.429688 L 194.289063 123.898438 "/>
<path style="fill:none;stroke-width:0.75;stroke-linecap:round;stroke-linejoin:round;stroke:rgb(0%,0%,0%);stroke-opacity:1;stroke-miterlimit:10;" d="M 194.289063 123.898438 L 193.75 120.679688 L 193.710938 120.542969 L 193.0625 120.277344 L 192.535156 117.914063 "/>
<path style="fill:none;stroke-width:0.75;stroke-linecap:round;stroke-linejoin:round;stroke:rgb(0%,0%,0%);stroke-opacity:1;stroke-miterlimit:10;" d="M 192.535156 117.914063 L 193.835938 116.300781 L 193.925781 116.386719 L 193.460938 113.050781 "/>
<path style="fill:none;stroke-width:0.75;stroke-linecap:round;stroke-linejoin:round;stroke:rgb(0%,0%,0%);stroke-opacity:1;stroke-miterlimit:10;" d="M 193.460938 113.050781 L 195.902344 112.171875 L 196.808594 112.609375 L 198.046875 112.5625 "/>
<path style="fill:none;stroke-width:0.75;stroke-linecap:round;stroke-linejoin:round;stroke:rgb(0%,0%,0%);stroke-opacity:1;stroke-miterlimit:10;" d="M 238.421875 127.785156 L 237.859375 128.628906 L 236.746094 128.320313 L 236.601563 128.242188 L 233.046875 127.984375 "/>
<path style="fill:none;stroke-width:0.75;stroke-linecap:round;stroke-linejoin:round;stroke:rgb(0%,0%,0%);stroke-opacity:1;stroke-miterlimit:10;" d="M 233.046875 127.984375 L 231.3125 127.734375 L 229.394531 127.976563 "/>
<path style="fill:none;stroke-width:0.75;stroke-linecap:round;stroke-linejoin:round;stroke:rgb(0%,0%,0%);stroke-opacity:1;stroke-miterlimit:10;" d="M 229.394531 127.976563 L 226.882813 127.972656 L 226.550781 127.71875 "/>
<path style="fill:none;stroke-width:0.75;stroke-linecap:round;stroke-linejoin:round;stroke:rgb(0%,0%,0%);stroke-opacity:1;stroke-miterlimit:10;" d="M 226.550781 127.71875 L 225.921875 124.660156 L 224.234375 123.144531 "/>
<path style="fill:none;stroke-width:0.75;stroke-linecap:round;stroke-linejoin:round;stroke:rgb(0%,0%,0%);stroke-opacity:1;stroke-miterlimit:10;" d="M 224.234375 123.144531 L 227.304688 119.15625 L 229.808594 119.519531 L 230.367188 118.207031 L 235.121094 110.742188 L 234.480469 107.609375 "/>
<path style="fill:none;stroke-width:0.75;stroke-linecap:round;stroke-linejoin:round;stroke:rgb(0%,0%,0%);stroke-opacity:1;stroke-miterlimit:10;" d="M 234.480469 107.609375 L 236.449219 110.480469 L 236.816406 113.441406 L 236.46875 113.386719 L 234.621094 113.539063 L 237.113281 117.976563 "/>
<path style="fill:none;stroke-width:0.75;stroke-linecap:round;stroke-linejoin:round;stroke:rgb(0%,0%,0%);stroke-opacity:1;stroke-miterlimit:10;" d="M 259.292969 122.484375 L 261.753906 123.613281 L 262.542969 123.828125 L 262.976563 123.625 L 265.679688 125.503906 "/>
<path style="fill:none;stroke-width:0.75;stroke-linecap:round;stroke-linejoin:round;stroke:rgb(0%,0%,0%);stroke-opacity:1;stroke-miterlimit:10;" d="M 265.679688 125.503906 L 266.335938 127.855469 L 266.277344 128.433594 L 265.011719 129.707031 L 263.332031 134.609375 "/>
<path style="fill:none;stroke-width:0.75;stroke-linecap:round;stroke-linejoin:round;stroke:rgb(0%,0%,0%);stroke-opacity:1;stroke-miterlimit:10;" d="M 263.332031 134.609375 L 262.535156 136 L 262.289063 137.097656 "/>
<path style="fill:none;stroke-width:0.75;stroke-linecap:round;stroke-linejoin:round;stroke:rgb(0%,0%,0%);stroke-opacity:1;stroke-miterlimit:10;" d="M 263.011719 140.324219 L 263.203125 143.539063 L 263.265625 143.804688 L 265.519531 147.3125 "/>
<path style="fill:none;stroke-width:0.75;stroke-linecap:round;stroke-linejoin:round;stroke:rgb(0%,0%,0%);stroke-opacity:1;stroke-miterlimit:10;" d="M 265.519531 147.3125 L 261.8125 148.691406 L 261.46875 154.246094 L 263.742188 155.257813 L 263.15625 156.785156 L 262.636719 157.027344 L 262.46875 157.019531 L 258.496094 154.089844 L 254.960938 153.035156 L 252.898438 152.3125 "/>
<path style="fill:none;stroke-width:0.75;stroke-linecap:round;stroke-linejoin:round;stroke:rgb(0%,0%,0%);stroke-opacity:1;stroke-miterlimit:10;" d="M 232.628906 142.964844 L 231.597656 143.226563 L 231.039063 142.769531 "/>
<path style="fill:none;stroke-width:0.75;stroke-linecap:round;stroke-linejoin:round;stroke:rgb(0%,0%,0%);stroke-opacity:1;stroke-miterlimit:10;" d="M 232.636719 140.671875 L 235.109375 140.757813 L 236.058594 140.804688 L 236.417969 140.347656 L 236.957031 139.941406 L 238.457031 136.621094 L 240.460938 133.886719 L 242.9375 125.527344 "/>
<path style="fill:none;stroke-width:0.75;stroke-linecap:round;stroke-linejoin:round;stroke:rgb(0%,0%,0%);stroke-opacity:1;stroke-miterlimit:10;" d="M 230.675781 141.359375 L 230.273438 140.800781 L 230.234375 140.75 L 229.023438 139.328125 "/>
<path style="fill:none;stroke-width:0.75;stroke-linecap:round;stroke-linejoin:round;stroke:rgb(0%,0%,0%);stroke-opacity:1;stroke-miterlimit:10;" d="M 229.023438 139.328125 L 230.238281 138.046875 L 230.546875 136.398438 L 232.25 135.871094 L 234.351563 136.667969 L 234.523438 136.625 L 234.550781 132.566406 L 235.167969 130.503906 L 233.472656 129.566406 L 233.046875 127.984375 "/>
<path style="fill:none;stroke-width:0.75;stroke-linecap:round;stroke-linejoin:round;stroke:rgb(0%,0%,0%);stroke-opacity:1;stroke-miterlimit:10;" d="M 289.765625 154.992188 L 289.476563 154.953125 L 289.765625 154.992188 "/>
<path style="fill:none;stroke-width:0.75;stroke-linecap:round;stroke-linejoin:round;stroke:rgb(0%,0%,0%);stroke-opacity:1;stroke-miterlimit:10;" d="M 291.046875 154.570313 L 290.570313 154.738281 L 290.703125 154.726563 L 291.046875 154.570313 "/>
<path style="fill:none;stroke-width:0.75;stroke-linecap:round;stroke-linejoin:round;stroke:rgb(0%,0%,0%);stroke-opacity:1;stroke-miterlimit:10;" d="M 289.167969 154.234375 L 288.824219 153.28125 L 288.855469 153.25 L 289.167969 154.234375 "/>
<path style="fill:none;stroke-width:0.75;stroke-linecap:round;stroke-linejoin:round;stroke:rgb(0%,0%,0%);stroke-opacity:1;stroke-miterlimit:10;" d="M 163.109375 104.292969 L 162.71875 104.152344 L 162.757813 104.0625 L 163.109375 104.292969 "/>
<path style="fill:none;stroke-width:0.75;stroke-linecap:round;stroke-linejoin:round;stroke:rgb(0%,0%,0%);stroke-opacity:1;stroke-miterlimit:10;" d="M 165.203125 103.769531 L 165.082031 103.542969 L 165.152344 103.417969 L 165.203125 103.769531 "/>
<path style="fill:none;stroke-width:0.75;stroke-linecap:round;stroke-linejoin:round;stroke:rgb(0%,0%,0%);stroke-opacity:1;stroke-miterlimit:10;" d="M 164.714844 104.007813 L 164.136719 103.570313 L 164.128906 103.445313 L 164.714844 104.007813 "/>
<path style="fill:none;stroke-width:0.75;stroke-linecap:round;stroke-linejoin:round;stroke:rgb(0%,0%,0%);stroke-opacity:1;stroke-miterlimit:10;" d="M 165.695313 101.714844 L 166.132813 101.945313 L 166.082031 102.078125 L 165.695313 101.714844 "/>
<path style="fill:none;stroke-width:0.75;stroke-linecap:round;stroke-linejoin:round;stroke:rgb(0%,0%,0%);stroke-opacity:1;stroke-miterlimit:10;" d="M 163.519531 100.996094 L 163.15625 101.082031 L 163.082031 101.238281 L 163.519531 100.996094 "/>
<path style="fill:none;stroke-width:0.75;stroke-linecap:round;stroke-linejoin:round;stroke:rgb(0%,0%,0%);stroke-opacity:1;stroke-miterlimit:10;" d="M 165.75 100.925781 L 165.558594 100.648438 L 165.75 100.925781 "/>
<path style="fill:none;stroke-width:0.75;stroke-linecap:round;stroke-linejoin:round;stroke:rgb(0%,0%,0%);stroke-opacity:1;stroke-miterlimit:10;" d="M 162.03125 100.628906 L 161.691406 100.53125 L 162.03125 100.628906 "/>
<path style="fill:none;stroke-width:0.75;stroke-linecap:round;stroke-linejoin:round;stroke:rgb(0%,0%,0%);stroke-opacity:1;stroke-miterlimit:10;" d="M 161.507813 100.390625 L 161.195313 100.121094 L 161.507813 100.390625 "/>
<path style="fill:none;stroke-width:0.75;stroke-linecap:round;stroke-linejoin:round;stroke:rgb(0%,0%,0%);stroke-opacity:1;stroke-miterlimit:10;" d="M 288.757813 110.554688 L 288.597656 110.808594 L 288.390625 111.125 L 288.15625 111.492188 "/>
<path style="fill:none;stroke-width:0.75;stroke-linecap:round;stroke-linejoin:round;stroke:rgb(0%,0%,0%);stroke-opacity:1;stroke-miterlimit:10;" d="M 288.15625 111.492188 L 287.011719 111.480469 L 286.203125 111.570313 L 287.144531 108.753906 "/>
<path style="fill:none;stroke-width:0.75;stroke-linecap:round;stroke-linejoin:round;stroke:rgb(0%,0%,0%);stroke-opacity:1;stroke-miterlimit:10;" d="M 287.144531 108.753906 L 287.75 108.914063 L 287.867188 108.832031 L 288.519531 108.300781 "/>
<path style="fill:none;stroke-width:0.75;stroke-linecap:round;stroke-linejoin:round;stroke:rgb(0%,0%,0%);stroke-opacity:1;stroke-miterlimit:10;" d="M 288.519531 108.300781 L 288.390625 109.941406 L 287.925781 110.109375 L 287.632813 110.445313 L 287.65625 110.539063 L 288.757813 110.554688 "/>
<path style="fill:none;stroke-width:0.75;stroke-linecap:round;stroke-linejoin:round;stroke:rgb(0%,0%,0%);stroke-opacity:1;stroke-miterlimit:10;" d="M 224.273438 63.078125 L 223.105469 67.6875 L 222.902344 67.796875 L 222.371094 68.328125 L 224.160156 71.507813 L 226.027344 75.597656 "/>
<path style="fill:none;stroke-width:0.75;stroke-linecap:round;stroke-linejoin:round;stroke:rgb(0%,0%,0%);stroke-opacity:1;stroke-miterlimit:10;" d="M 226.027344 75.597656 L 226.335938 82.675781 L 225.976563 82.871094 L 228.199219 86.195313 L 230.582031 88.125 "/>
<path style="fill:none;stroke-width:0.75;stroke-linecap:round;stroke-linejoin:round;stroke:rgb(0%,0%,0%);stroke-opacity:1;stroke-miterlimit:10;" d="M 230.582031 88.125 L 221.320313 93.8125 L 220.839844 94.230469 L 216.183594 96.292969 "/>
<path style="fill:none;stroke-width:0.75;stroke-linecap:round;stroke-linejoin:round;stroke:rgb(0%,0%,0%);stroke-opacity:1;stroke-miterlimit:10;" d="M 216.183594 96.292969 L 214.125 96.367188 L 213.652344 94.773438 L 213.542969 94.75 L 208.320313 91.238281 "/>
<path style="fill:none;stroke-width:0.75;stroke-linecap:round;stroke-linejoin:round;stroke:rgb(0%,0%,0%);stroke-opacity:1;stroke-miterlimit:10;" d="M 208.320313 91.238281 L 204.089844 88.460938 L 203.480469 88.058594 L 199.351563 85.367188 "/>
<path style="fill:none;stroke-width:0.75;stroke-linecap:round;stroke-linejoin:round;stroke:rgb(0%,0%,0%);stroke-opacity:1;stroke-miterlimit:10;" d="M 199.351563 85.367188 L 195.667969 83.15625 L 192.171875 81.09375 "/>
<path style="fill:none;stroke-width:0.75;stroke-linecap:round;stroke-linejoin:round;stroke:rgb(0%,0%,0%);stroke-opacity:1;stroke-miterlimit:10;" d="M 192.171875 81.09375 L 192.171875 80.402344 "/>
<path style="fill:none;stroke-width:0.75;stroke-linecap:round;stroke-linejoin:round;stroke:rgb(0%,0%,0%);stroke-opacity:1;stroke-miterlimit:10;" d="M 192.171875 80.402344 L 192.949219 77.929688 L 201.230469 73.851563 L 201.191406 73.792969 L 201.214844 73.683594 L 203.257813 72.117188 L 205.949219 72.128906 L 204.191406 66.5 "/>
<path style="fill:none;stroke-width:0.75;stroke-linecap:round;stroke-linejoin:round;stroke:rgb(0%,0%,0%);stroke-opacity:1;stroke-miterlimit:10;" d="M 204.191406 66.5 L 206.078125 65.769531 L 206.296875 65.613281 L 208.320313 65.078125 "/>
<path style="fill:none;stroke-width:0.75;stroke-linecap:round;stroke-linejoin:round;stroke:rgb(0%,0%,0%);stroke-opacity:1;stroke-miterlimit:10;" d="M 208.320313 65.078125 L 217.171875 63.15625 L 217.984375 63.566406 L 219.945313 63.078125 L 222.8125 63.1875 L 224.273438 63.078125 "/>
<path style="fill:none;stroke-width:0.75;stroke-linecap:round;stroke-linejoin:round;stroke:rgb(0%,0%,0%);stroke-opacity:1;stroke-miterlimit:10;" d="M 271.929688 73.558594 L 271.957031 73.617188 L 272.015625 73.773438 "/>
<path style="fill:none;stroke-width:0.75;stroke-linecap:round;stroke-linejoin:round;stroke:rgb(0%,0%,0%);stroke-opacity:1;stroke-miterlimit:10;" d="M 272.015625 73.773438 L 272.546875 75.195313 L 273.242188 77.003906 "/>
<path style="fill:none;stroke-width:0.75;stroke-linecap:round;stroke-linejoin:round;stroke:rgb(0%,0%,0%);stroke-opacity:1;stroke-miterlimit:10;" d="M 273.242188 77.003906 L 271.644531 80.078125 L 268.511719 76.714844 L 269.742188 78.933594 L 274.378906 87.519531 L 276.902344 90.964844 "/>
<path style="fill:none;stroke-width:0.75;stroke-linecap:round;stroke-linejoin:round;stroke:rgb(0%,0%,0%);stroke-opacity:1;stroke-miterlimit:10;" d="M 276.902344 90.964844 L 266.789063 90.964844 L 266.84375 90.601563 L 266.726563 90.582031 L 254.785156 90.964844 "/>
<path style="fill:none;stroke-width:0.75;stroke-linecap:round;stroke-linejoin:round;stroke:rgb(0%,0%,0%);stroke-opacity:1;stroke-miterlimit:10;" d="M 254.785156 90.964844 L 254.785156 79.648438 L 255.101563 72.9375 "/>
<path style="fill:none;stroke-width:0.75;stroke-linecap:round;stroke-linejoin:round;stroke:rgb(0%,0%,0%);stroke-opacity:1;stroke-miterlimit:10;" d="M 255.101563 72.9375 L 263.359375 74.140625 L 266.078125 73.058594 L 267.414063 73.613281 L 271.929688 73.558594 "/>
<path style="fill:none;stroke-width:0.75;stroke-linecap:round;stroke-linejoin:round;stroke:rgb(0%,0%,0%);stroke-opacity:1;stroke-miterlimit:10;" d="M 282.984375 102.722656 L 282.765625 102.800781 L 282.984375 102.722656 "/>
<path style="fill:none;stroke-width:0.75;stroke-linecap:round;stroke-linejoin:round;stroke:rgb(0%,0%,0%);stroke-opacity:1;stroke-miterlimit:10;" d="M 282.863281 102.003906 L 282.714844 102.078125 L 282.863281 102.003906 "/>
<path style="fill:none;stroke-width:0.75;stroke-linecap:round;stroke-linejoin:round;stroke:rgb(0%,0%,0%);stroke-opacity:1;stroke-miterlimit:10;" d="M 280.132813 98.414063 L 282.828125 103.617188 L 282.878906 103.738281 L 288.519531 108.300781 "/>
<path style="fill:none;stroke-width:0.75;stroke-linecap:round;stroke-linejoin:round;stroke:rgb(0%,0%,0%);stroke-opacity:1;stroke-miterlimit:10;" d="M 287.144531 108.753906 L 282.160156 104.957031 L 281.230469 104.996094 L 280.90625 104.71875 L 279.414063 104.675781 L 278.457031 105.035156 L 276.257813 105.410156 "/>
<path style="fill:none;stroke-width:0.75;stroke-linecap:round;stroke-linejoin:round;stroke:rgb(0%,0%,0%);stroke-opacity:1;stroke-miterlimit:10;" d="M 276.257813 105.410156 L 277.90625 100.175781 L 277.984375 100.089844 L 278.089844 99.753906 L 280.132813 98.414063 "/>
<path style="fill:none;stroke-width:0.75;stroke-linecap:round;stroke-linejoin:round;stroke:rgb(0%,0%,0%);stroke-opacity:1;stroke-miterlimit:10;" d="M 288.15625 111.492188 L 289.035156 114.324219 L 289.199219 114.515625 L 297.558594 117.09375 "/>
<path style="fill:none;stroke-width:0.75;stroke-linecap:round;stroke-linejoin:round;stroke:rgb(0%,0%,0%);stroke-opacity:1;stroke-miterlimit:10;" d="M 297.558594 117.09375 L 290.847656 122.816406 L 290.210938 122.78125 L 290.140625 122.78125 L 286.226563 124.597656 "/>
<path style="fill:none;stroke-width:0.75;stroke-linecap:round;stroke-linejoin:round;stroke:rgb(0%,0%,0%);stroke-opacity:1;stroke-miterlimit:10;" d="M 286.226563 124.597656 L 284.839844 124.625 L 283.308594 124.398438 L 280.132813 125.300781 L 278.558594 124.808594 L 276.308594 123.738281 L 273.917969 121.769531 "/>
<path style="fill:none;stroke-width:0.75;stroke-linecap:round;stroke-linejoin:round;stroke:rgb(0%,0%,0%);stroke-opacity:1;stroke-miterlimit:10;" d="M 273.917969 121.769531 L 270.660156 117.632813 L 270.429688 117.605469 L 270.121094 117.535156 L 270.898438 116.28125 L 271.707031 114.359375 "/>
<path style="fill:none;stroke-width:0.75;stroke-linecap:round;stroke-linejoin:round;stroke:rgb(0%,0%,0%);stroke-opacity:1;stroke-miterlimit:10;" d="M 271.707031 114.359375 L 273.203125 111.84375 L 273.53125 110.332031 L 273.890625 109.703125 L 276.257813 105.410156 "/>
<path style="fill:none;stroke-width:0.75;stroke-linecap:round;stroke-linejoin:round;stroke:rgb(0%,0%,0%);stroke-opacity:1;stroke-miterlimit:10;" d="M 229.023438 139.328125 L 225.707031 134.492188 L 225.652344 134.507813 L 224.953125 134.019531 L 225.621094 131.480469 L 226.503906 131.660156 L 226.160156 130.09375 "/>
<path style="fill:none;stroke-width:0.75;stroke-linecap:round;stroke-linejoin:round;stroke:rgb(0%,0%,0%);stroke-opacity:1;stroke-miterlimit:10;" d="M 226.160156 130.09375 L 226.972656 130.144531 L 227.253906 130.148438 L 229.023438 130.152344 L 229.394531 127.976563 "/>
<path style="fill:none;stroke-width:0.75;stroke-linecap:round;stroke-linejoin:round;stroke:rgb(0%,0%,0%);stroke-opacity:1;stroke-miterlimit:10;" d="M 208.195313 111.273438 L 208.3125 111.386719 L 208.320313 111.40625 "/>
<path style="fill:none;stroke-width:0.75;stroke-linecap:round;stroke-linejoin:round;stroke:rgb(0%,0%,0%);stroke-opacity:1;stroke-miterlimit:10;" d="M 208.320313 111.40625 L 208.339844 111.449219 L 208.320313 111.546875 "/>
<path style="fill:none;stroke-width:0.75;stroke-linecap:round;stroke-linejoin:round;stroke:rgb(0%,0%,0%);stroke-opacity:1;stroke-miterlimit:10;" d="M 208.320313 111.546875 L 208.152344 112.019531 L 208.320313 112.253906 "/>
<path style="fill:none;stroke-width:0.75;stroke-linecap:round;stroke-linejoin:round;stroke:rgb(0%,0%,0%);stroke-opacity:1;stroke-miterlimit:10;" d="M 208.320313 112.253906 L 209.027344 115.742188 L 209.445313 117.597656 L 210.53125 120.65625 "/>
<path style="fill:none;stroke-width:0.75;stroke-linecap:round;stroke-linejoin:round;stroke:rgb(0%,0%,0%);stroke-opacity:1;stroke-miterlimit:10;" d="M 210.53125 120.65625 L 210.085938 121.175781 L 208.320313 121.511719 "/>
<path style="fill:none;stroke-width:0.75;stroke-linecap:round;stroke-linejoin:round;stroke:rgb(0%,0%,0%);stroke-opacity:1;stroke-miterlimit:10;" d="M 208.320313 121.511719 L 205.273438 122.722656 L 205.015625 122.910156 L 202.53125 122.523438 "/>
<path style="fill:none;stroke-width:0.75;stroke-linecap:round;stroke-linejoin:round;stroke:rgb(0%,0%,0%);stroke-opacity:1;stroke-miterlimit:10;" d="M 202.582031 122.449219 L 202.707031 122.445313 "/>
<path style="fill:none;stroke-width:0.75;stroke-linecap:round;stroke-linejoin:round;stroke:rgb(0%,0%,0%);stroke-opacity:1;stroke-miterlimit:10;" d="M 187.136719 108.867188 L 190.253906 109.542969 L 190.902344 108.726563 L 191.023438 108.707031 L 193.460938 113.050781 "/>
<path style="fill:none;stroke-width:0.75;stroke-linecap:round;stroke-linejoin:round;stroke:rgb(0%,0%,0%);stroke-opacity:1;stroke-miterlimit:10;" d="M 192.535156 117.914063 L 190.816406 118.003906 L 190.867188 117.886719 L 190.894531 117.761719 L 190.847656 117.472656 L 189.195313 116.183594 "/>
<path style="fill:none;stroke-width:0.75;stroke-linecap:round;stroke-linejoin:round;stroke:rgb(0%,0%,0%);stroke-opacity:1;stroke-miterlimit:10;" d="M 189.195313 116.183594 L 188.460938 116.339844 L 187.773438 113.753906 L 187.648438 113.648438 L 186.984375 113.363281 L 183.597656 115.128906 "/>
<path style="fill:none;stroke-width:0.75;stroke-linecap:round;stroke-linejoin:round;stroke:rgb(0%,0%,0%);stroke-opacity:1;stroke-miterlimit:10;" d="M 183.597656 115.128906 L 182.226563 113.140625 L 182.199219 113.09375 L 180.339844 111.601563 "/>
<path style="fill:none;stroke-width:0.75;stroke-linecap:round;stroke-linejoin:round;stroke:rgb(0%,0%,0%);stroke-opacity:1;stroke-miterlimit:10;" d="M 180.339844 111.601563 L 182.78125 109.699219 L 182.769531 109.605469 L 182.785156 108.363281 "/>
<path style="fill:none;stroke-width:0.75;stroke-linecap:round;stroke-linejoin:round;stroke:rgb(0%,0%,0%);stroke-opacity:1;stroke-miterlimit:10;" d="M 182.785156 108.363281 L 184.351563 108.652344 L 184.847656 108.882813 L 187.136719 108.867188 "/>
<path style="fill:none;stroke-width:0.75;stroke-linecap:round;stroke-linejoin:round;stroke:rgb(0%,0%,0%);stroke-opacity:1;stroke-miterlimit:10;" d="M 177.140625 107.636719 L 178.265625 107.039063 L 178.585938 106.992188 L 177.515625 106.660156 "/>
<path style="fill:none;stroke-width:0.75;stroke-linecap:round;stroke-linejoin:round;stroke:rgb(0%,0%,0%);stroke-opacity:1;stroke-miterlimit:10;" d="M 177.515625 106.660156 L 182.566406 107.128906 L 182.253906 107.203125 L 181.824219 107.316406 L 177.140625 107.636719 "/>
<path style="fill:none;stroke-width:0.75;stroke-linecap:round;stroke-linejoin:round;stroke:rgb(0%,0%,0%);stroke-opacity:1;stroke-miterlimit:10;" d="M 178.753906 111.335938 L 178.628906 111.3125 L 178.660156 111.152344 L 178.753906 111.335938 "/>
<path style="fill:none;stroke-width:0.75;stroke-linecap:round;stroke-linejoin:round;stroke:rgb(0%,0%,0%);stroke-opacity:1;stroke-miterlimit:10;" d="M 178.347656 111.378906 L 178.292969 111.179688 L 178.347656 111.378906 "/>
<path style="fill:none;stroke-width:0.75;stroke-linecap:round;stroke-linejoin:round;stroke:rgb(0%,0%,0%);stroke-opacity:1;stroke-miterlimit:10;" d="M 179.074219 111.085938 L 179.085938 110.925781 L 179.074219 111.085938 "/>
<path style="fill:none;stroke-width:0.75;stroke-linecap:round;stroke-linejoin:round;stroke:rgb(0%,0%,0%);stroke-opacity:1;stroke-miterlimit:10;" d="M 178.746094 110.621094 L 178.519531 110.597656 L 178.527344 110.503906 L 178.746094 110.621094 "/>
<path style="fill:none;stroke-width:0.75;stroke-linecap:round;stroke-linejoin:round;stroke:rgb(0%,0%,0%);stroke-opacity:1;stroke-miterlimit:10;" d="M 179.390625 110.488281 L 179.421875 110.335938 L 179.523438 110.308594 L 179.390625 110.488281 "/>
<path style="fill:none;stroke-width:0.75;stroke-linecap:round;stroke-linejoin:round;stroke:rgb(0%,0%,0%);stroke-opacity:1;stroke-miterlimit:10;" d="M 178.585938 109.84375 L 178.289063 109.910156 L 178.585938 109.84375 "/>
<path style="fill:none;stroke-width:0.75;stroke-linecap:round;stroke-linejoin:round;stroke:rgb(0%,0%,0%);stroke-opacity:1;stroke-miterlimit:10;" d="M 180.339844 111.601563 L 180.117188 110.40625 L 179.488281 110.136719 L 179.492188 110.035156 L 177.238281 108.960938 "/>
<path style="fill:none;stroke-width:0.75;stroke-linecap:round;stroke-linejoin:round;stroke:rgb(0%,0%,0%);stroke-opacity:1;stroke-miterlimit:10;" d="M 177.238281 108.960938 L 178.859375 108.804688 L 179.351563 108.707031 L 180.058594 108.355469 L 182.785156 108.363281 "/>
<path style="fill:none;stroke-width:0.75;stroke-linecap:round;stroke-linejoin:round;stroke:rgb(0%,0%,0%);stroke-opacity:1;stroke-miterlimit:10;" d="M 226.160156 130.09375 L 225.980469 129.339844 L 226.148438 129.144531 L 226.550781 127.71875 "/>
<path style="fill:none;stroke-width:0.75;stroke-linecap:round;stroke-linejoin:round;stroke:rgb(0%,0%,0%);stroke-opacity:1;stroke-miterlimit:10;" d="M 224.570313 125.003906 L 224.085938 125.925781 L 224.027344 125.875 L 224.570313 125.003906 "/>
<path style="fill:none;stroke-width:0.75;stroke-linecap:round;stroke-linejoin:round;stroke:rgb(0%,0%,0%);stroke-opacity:1;stroke-miterlimit:10;" d="M 284.570313 136.046875 L 284.824219 135.851563 L 284.570313 136.046875 "/>
<path style="fill:none;stroke-width:0.75;stroke-linecap:round;stroke-linejoin:round;stroke:rgb(0%,0%,0%);stroke-opacity:1;stroke-miterlimit:10;" d="M 286.226563 124.597656 L 284.519531 127.875 L 284.523438 129.449219 L 284.53125 131.019531 L 285.570313 135.183594 "/>
<path style="fill:none;stroke-width:0.75;stroke-linecap:round;stroke-linejoin:round;stroke:rgb(0%,0%,0%);stroke-opacity:1;stroke-miterlimit:10;" d="M 285.570313 135.183594 L 283.054688 137.28125 L 281.273438 140.777344 "/>
<path style="fill:none;stroke-width:0.75;stroke-linecap:round;stroke-linejoin:round;stroke:rgb(0%,0%,0%);stroke-opacity:1;stroke-miterlimit:10;" d="M 281.273438 140.777344 L 278.398438 137.953125 L 271.378906 133.890625 "/>
<path style="fill:none;stroke-width:0.75;stroke-linecap:round;stroke-linejoin:round;stroke:rgb(0%,0%,0%);stroke-opacity:1;stroke-miterlimit:10;" d="M 271.378906 133.890625 L 272.914063 129.753906 L 273.375 128.8125 L 271.515625 124.144531 "/>
<path style="fill:none;stroke-width:0.75;stroke-linecap:round;stroke-linejoin:round;stroke:rgb(0%,0%,0%);stroke-opacity:1;stroke-miterlimit:10;" d="M 271.515625 124.144531 L 272.75 122.921875 L 273.917969 121.769531 "/>
<path style="fill:none;stroke-width:0.75;stroke-linecap:round;stroke-linejoin:round;stroke:rgb(0%,0%,0%);stroke-opacity:1;stroke-miterlimit:10;" d="M 194.289063 123.898438 L 189.207031 120.675781 L 188.945313 120.507813 L 186.917969 119.128906 "/>
<path style="fill:none;stroke-width:0.75;stroke-linecap:round;stroke-linejoin:round;stroke:rgb(0%,0%,0%);stroke-opacity:1;stroke-miterlimit:10;" d="M 186.917969 119.128906 L 188.4375 117.582031 L 188.515625 117.539063 L 189.195313 116.183594 "/>
<path style="fill:none;stroke-width:0.75;stroke-linecap:round;stroke-linejoin:round;stroke:rgb(0%,0%,0%);stroke-opacity:1;stroke-miterlimit:10;" d="M 254.785156 90.964844 L 254.757813 94.699219 L 253.84375 94.699219 L 252.925781 95.632813 "/>
<path style="fill:none;stroke-width:0.75;stroke-linecap:round;stroke-linejoin:round;stroke:rgb(0%,0%,0%);stroke-opacity:1;stroke-miterlimit:10;" d="M 252.925781 95.632813 L 244.011719 91.214844 L 238.667969 88.566406 L 236.183594 89.097656 "/>
<path style="fill:none;stroke-width:0.75;stroke-linecap:round;stroke-linejoin:round;stroke:rgb(0%,0%,0%);stroke-opacity:1;stroke-miterlimit:10;" d="M 236.183594 89.097656 L 234.734375 89.792969 L 234.105469 89.273438 L 230.582031 88.125 "/>
<path style="fill:none;stroke-width:0.75;stroke-linecap:round;stroke-linejoin:round;stroke:rgb(0%,0%,0%);stroke-opacity:1;stroke-miterlimit:10;" d="M 226.027344 75.597656 L 227.242188 73.691406 L 227.804688 72.789063 L 227.933594 72.664063 L 228.789063 71.972656 L 229.71875 70.089844 "/>
<path style="fill:none;stroke-width:0.75;stroke-linecap:round;stroke-linejoin:round;stroke:rgb(0%,0%,0%);stroke-opacity:1;stroke-miterlimit:10;" d="M 229.71875 70.089844 L 236.894531 72.347656 L 244.203125 75.488281 L 245.726563 74.230469 L 245.449219 73.125 L 247.972656 70.84375 L 255.101563 72.9375 "/>
<path style="fill:none;stroke-width:0.75;stroke-linecap:round;stroke-linejoin:round;stroke:rgb(0%,0%,0%);stroke-opacity:1;stroke-miterlimit:10;" d="M 261.773438 188.203125 L 259.457031 188.691406 L 259.203125 186.996094 L 259.332031 186.820313 L 260.328125 185.910156 L 262.59375 186.214844 L 261.773438 188.203125 "/>
<path style="fill:none;stroke-width:0.75;stroke-linecap:round;stroke-linejoin:round;stroke:rgb(0%,0%,0%);stroke-opacity:1;stroke-miterlimit:10;" d="M 192.171875 80.402344 L 189.90625 81.90625 L 187.132813 81.84375 L 185.628906 84.390625 L 184.308594 86.253906 L 181.109375 91.21875 L 176.695313 92.039063 "/>
<path style="fill:none;stroke-width:0.75;stroke-linecap:round;stroke-linejoin:round;stroke:rgb(0%,0%,0%);stroke-opacity:1;stroke-miterlimit:10;" d="M 176.695313 92.039063 L 182.371094 82.582031 L 185.128906 79.742188 L 189.703125 76.695313 L 190.328125 72.832031 L 194.253906 69.234375 L 197.300781 65.230469 L 198.394531 65.304688 L 204.191406 66.5 "/>
<path style="fill:none;stroke-width:0.75;stroke-linecap:round;stroke-linejoin:round;stroke:rgb(0%,0%,0%);stroke-opacity:1;stroke-miterlimit:10;" d="M 301.203125 163.566406 L 301.050781 163.625 L 301.292969 163.210938 L 301.203125 163.566406 "/>
<path style="fill:none;stroke-width:0.75;stroke-linecap:round;stroke-linejoin:round;stroke:rgb(0%,0%,0%);stroke-opacity:1;stroke-miterlimit:10;" d="M 298.238281 156.960938 L 298.074219 156.761719 L 298.238281 156.960938 "/>
<path style="fill:none;stroke-width:0.75;stroke-linecap:round;stroke-linejoin:round;stroke:rgb(0%,0%,0%);stroke-opacity:1;stroke-miterlimit:10;" d="M 300.460938 155.222656 L 301.710938 161.808594 L 300.699219 161.316406 L 296.535156 177.046875 L 294.601563 179.003906 L 290.804688 179.101563 L 288.917969 172.804688 L 289.996094 170.964844 L 290.492188 166.769531 L 290.945313 163.195313 L 293.667969 161.511719 L 296.644531 159.578125 L 297.761719 157.445313 L 299.527344 155.007813 L 300.460938 155.222656 "/>
<path style="fill:none;stroke-width:0.75;stroke-linecap:round;stroke-linejoin:round;stroke:rgb(0%,0%,0%);stroke-opacity:1;stroke-miterlimit:10;" d="M 216.183594 96.292969 L 215.222656 102.824219 L 208.726563 104.1875 "/>
<path style="fill:none;stroke-width:0.75;stroke-linecap:round;stroke-linejoin:round;stroke:rgb(0%,0%,0%);stroke-opacity:1;stroke-miterlimit:10;" d="M 187.136719 108.867188 L 186.316406 107.167969 L 186.230469 107.078125 L 185.480469 104.378906 "/>
<path style="fill:none;stroke-width:0.75;stroke-linecap:round;stroke-linejoin:round;stroke:rgb(0%,0%,0%);stroke-opacity:1;stroke-miterlimit:10;" d="M 185.480469 104.378906 L 187.179688 103.023438 L 190.761719 103.070313 L 195.398438 103.097656 L 198.066406 103.097656 L 196.105469 85.792969 L 199.351563 85.367188 "/>
<path style="fill:none;stroke-width:0.75;stroke-linecap:round;stroke-linejoin:round;stroke:rgb(0%,0%,0%);stroke-opacity:1;stroke-miterlimit:10;" d="M 269.488281 182.132813 L 268.730469 182.148438 L 268.050781 182.113281 "/>
<path style="fill:none;stroke-width:0.75;stroke-linecap:round;stroke-linejoin:round;stroke:rgb(0%,0%,0%);stroke-opacity:1;stroke-miterlimit:10;" d="M 268.050781 182.113281 L 267.917969 181.070313 L 267.953125 180.949219 L 267.746094 180.46875 "/>
<path style="fill:none;stroke-width:0.75;stroke-linecap:round;stroke-linejoin:round;stroke:rgb(0%,0%,0%);stroke-opacity:1;stroke-miterlimit:10;" d="M 267.746094 180.46875 L 267.578125 176.890625 L 267.46875 176.613281 L 266.515625 173.832031 "/>
<path style="fill:none;stroke-width:0.75;stroke-linecap:round;stroke-linejoin:round;stroke:rgb(0%,0%,0%);stroke-opacity:1;stroke-miterlimit:10;" d="M 266.515625 173.832031 L 269.648438 168.96875 L 269.183594 167.160156 L 269.484375 163.820313 L 264.859375 161.214844 "/>
<path style="fill:none;stroke-width:0.75;stroke-linecap:round;stroke-linejoin:round;stroke:rgb(0%,0%,0%);stroke-opacity:1;stroke-miterlimit:10;" d="M 264.859375 161.214844 L 265.375 159.679688 L 266.222656 159.445313 L 270.074219 158.175781 "/>
<path style="fill:none;stroke-width:0.75;stroke-linecap:round;stroke-linejoin:round;stroke:rgb(0%,0%,0%);stroke-opacity:1;stroke-miterlimit:10;" d="M 270.074219 158.175781 L 272.597656 160.046875 L 272.699219 162.6875 L 273.960938 163.929688 L 274.964844 160.796875 L 272.457031 155.660156 L 273.34375 153.628906 "/>
<path style="fill:none;stroke-width:0.75;stroke-linecap:round;stroke-linejoin:round;stroke:rgb(0%,0%,0%);stroke-opacity:1;stroke-miterlimit:10;" d="M 273.34375 153.628906 L 277.835938 153.875 L 278.148438 153.8125 L 283.582031 151.550781 "/>
<path style="fill:none;stroke-width:0.75;stroke-linecap:round;stroke-linejoin:round;stroke:rgb(0%,0%,0%);stroke-opacity:1;stroke-miterlimit:10;" d="M 283.582031 151.550781 L 283.761719 160.898438 L 278.703125 164.484375 L 273.324219 169 L 273.191406 170.601563 L 274.332031 176.9375 L 269.628906 179.597656 L 269.488281 182.132813 "/>
<path style="fill:none;stroke-width:0.75;stroke-linecap:round;stroke-linejoin:round;stroke:rgb(0%,0%,0%);stroke-opacity:1;stroke-miterlimit:10;" d="M 272.753906 154.441406 L 272.589844 154.382813 L 272.566406 154.453125 L 272.753906 154.441406 "/>
<path style="fill:none;stroke-width:0.75;stroke-linecap:round;stroke-linejoin:round;stroke:rgb(0%,0%,0%);stroke-opacity:1;stroke-miterlimit:10;" d="M 272.898438 154.625 L 272.890625 154.421875 L 272.898438 154.625 "/>
<path style="fill:none;stroke-width:0.75;stroke-linecap:round;stroke-linejoin:round;stroke:rgb(0%,0%,0%);stroke-opacity:1;stroke-miterlimit:10;" d="M 177.867188 95.238281 L 177.675781 95.230469 L 177.78125 95.0625 L 177.867188 95.238281 "/>
<path style="fill:none;stroke-width:0.75;stroke-linecap:round;stroke-linejoin:round;stroke:rgb(0%,0%,0%);stroke-opacity:1;stroke-miterlimit:10;" d="M 185.480469 104.378906 L 182.734375 101.835938 L 182.636719 101.898438 L 179.265625 101.210938 L 177.566406 102.460938 "/>
<path style="fill:none;stroke-width:0.75;stroke-linecap:round;stroke-linejoin:round;stroke:rgb(0%,0%,0%);stroke-opacity:1;stroke-miterlimit:10;" d="M 177.566406 102.460938 L 177.992188 96.269531 L 177.992188 95.601563 L 177.734375 95.675781 L 178.128906 94.691406 L 176.613281 93.1875 "/>
<path style="fill:none;stroke-width:0.75;stroke-linecap:round;stroke-linejoin:round;stroke:rgb(0%,0%,0%);stroke-opacity:1;stroke-miterlimit:10;" d="M 176.613281 93.1875 L 177.859375 92.210938 L 184.0625 91.492188 L 184.625 88.734375 L 185.847656 88.28125 L 185.957031 88.21875 L 185.972656 83.976563 L 190.410156 83.5 L 191.449219 83.5 L 192.171875 81.09375 "/>
<path style="fill:none;stroke-width:0.75;stroke-linecap:round;stroke-linejoin:round;stroke:rgb(0%,0%,0%);stroke-opacity:1;stroke-miterlimit:10;" d="M 315.550781 170.253906 L 315.246094 169.617188 L 315.550781 170.253906 "/>
<path style="fill:none;stroke-width:0.75;stroke-linecap:round;stroke-linejoin:round;stroke:rgb(0%,0%,0%);stroke-opacity:1;stroke-miterlimit:10;" d="M 270.074219 158.175781 L 269.585938 156.765625 L 270.261719 154.207031 L 270.269531 154.042969 L 270.34375 152.203125 L 269.550781 149.578125 "/>
<path style="fill:none;stroke-width:0.75;stroke-linecap:round;stroke-linejoin:round;stroke:rgb(0%,0%,0%);stroke-opacity:1;stroke-miterlimit:10;" d="M 269.550781 149.578125 L 272.535156 150.820313 L 273.34375 153.628906 "/>
<path style="fill:none;stroke-width:0.75;stroke-linecap:round;stroke-linejoin:round;stroke:rgb(0%,0%,0%);stroke-opacity:1;stroke-miterlimit:10;" d="M 251.808594 164.945313 L 253.472656 164.648438 L 255.300781 165.230469 "/>
<path style="fill:none;stroke-width:0.75;stroke-linecap:round;stroke-linejoin:round;stroke:rgb(0%,0%,0%);stroke-opacity:1;stroke-miterlimit:10;" d="M 245.484375 178.265625 L 244.910156 185.21875 L 241.242188 185.714844 L 240.609375 184.78125 L 238.914063 185.433594 "/>
<path style="fill:none;stroke-width:0.75;stroke-linecap:round;stroke-linejoin:round;stroke:rgb(0%,0%,0%);stroke-opacity:1;stroke-miterlimit:10;" d="M 238.914063 185.433594 L 235.933594 180.035156 L 235.238281 175.835938 L 235.242188 175.472656 L 230.164063 164.214844 "/>
<path style="fill:none;stroke-width:0.75;stroke-linecap:round;stroke-linejoin:round;stroke:rgb(0%,0%,0%);stroke-opacity:1;stroke-miterlimit:10;" d="M 236.183594 89.097656 L 237.589844 94.871094 L 237.519531 95.632813 L 237.183594 99.527344 L 235.046875 102.625 L 233.628906 106.441406 "/>
<path style="fill:none;stroke-width:0.75;stroke-linecap:round;stroke-linejoin:round;stroke:rgb(0%,0%,0%);stroke-opacity:1;stroke-miterlimit:10;" d="M 233.628906 106.441406 L 230.070313 107.199219 L 227.804688 107.140625 L 224.597656 107.929688 L 221.445313 107.757813 L 221.101563 107.675781 L 220.648438 107.078125 L 216.996094 106.386719 L 215.007813 110.191406 "/>
<path style="fill:none;stroke-width:0.75;stroke-linecap:round;stroke-linejoin:round;stroke:rgb(0%,0%,0%);stroke-opacity:1;stroke-miterlimit:10;" d="M 221.902344 123.773438 L 221.765625 123.570313 L 221.902344 123.773438 "/>
<path style="fill:none;stroke-width:0.75;stroke-linecap:round;stroke-linejoin:round;stroke:rgb(0%,0%,0%);stroke-opacity:1;stroke-miterlimit:10;" d="M 233.628906 106.441406 L 233.921875 106.84375 L 234.234375 107.273438 L 234.480469 107.609375 "/>
<path style="fill:none;stroke-width:0.75;stroke-linecap:round;stroke-linejoin:round;stroke:rgb(0%,0%,0%);stroke-opacity:1;stroke-miterlimit:10;" d="M 224.234375 123.144531 L 219.804688 124.035156 L 219.625 124.011719 L 217.363281 120.773438 L 213.355469 120.132813 "/>
<path style="fill:none;stroke-width:0.75;stroke-linecap:round;stroke-linejoin:round;stroke:rgb(0%,0%,0%);stroke-opacity:1;stroke-miterlimit:10;" d="M 265.070313 134.011719 L 265.644531 135.691406 L 265.152344 136.5 "/>
<path style="fill:none;stroke-width:0.75;stroke-linecap:round;stroke-linejoin:round;stroke:rgb(0%,0%,0%);stroke-opacity:1;stroke-miterlimit:10;" d="M 263.332031 134.609375 L 264.308594 134.574219 L 265.070313 134.011719 "/>
<path style="fill:none;stroke-width:0.75;stroke-linecap:round;stroke-linejoin:round;stroke:rgb(0%,0%,0%);stroke-opacity:1;stroke-miterlimit:10;" d="M 276.902344 90.964844 L 277.5 94.464844 L 277.628906 95.078125 L 277.601563 95.472656 L 280.132813 98.414063 "/>
<path style="fill:none;stroke-width:0.75;stroke-linecap:round;stroke-linejoin:round;stroke:rgb(0%,0%,0%);stroke-opacity:1;stroke-miterlimit:10;" d="M 271.707031 114.359375 L 269.929688 110.195313 L 269.179688 109.246094 L 267.976563 109.609375 L 268.59375 111.382813 L 267.453125 112.640625 L 267.402344 112.691406 L 266.398438 113.730469 L 264.125 112.839844 L 262.710938 113.882813 L 258.679688 114.078125 L 255.351563 112.761719 L 253.234375 115.847656 "/>
<path style="fill:none;stroke-width:0.75;stroke-linecap:round;stroke-linejoin:round;stroke:rgb(0%,0%,0%);stroke-opacity:1;stroke-miterlimit:10;" d="M 250.839844 111.640625 L 249.105469 108.355469 L 249.871094 105.835938 L 250.058594 105.25 L 252.222656 102.632813 L 252.925781 95.632813 "/>
<path style="fill:none;stroke-width:0.75;stroke-linecap:round;stroke-linejoin:round;stroke:rgb(0%,0%,0%);stroke-opacity:1;stroke-miterlimit:10;" d="M 271.515625 124.144531 L 268.09375 125.449219 L 265.679688 125.503906 "/>
<path style="fill:none;stroke-width:0.75;stroke-linecap:round;stroke-linejoin:round;stroke:rgb(0%,0%,0%);stroke-opacity:1;stroke-miterlimit:10;" d="M 177.238281 108.960938 L 177.539063 108.382813 L 177.449219 108.289063 L 177.140625 107.636719 "/>
<path style="fill:none;stroke-width:0.75;stroke-linecap:round;stroke-linejoin:round;stroke:rgb(0%,0%,0%);stroke-opacity:1;stroke-miterlimit:10;" d="M 177.515625 106.660156 L 176.925781 105.5 L 176.75 105.136719 L 176.390625 104.695313 L 177.566406 102.460938 "/>
<path style="fill:none;stroke-width:0.75;stroke-linecap:round;stroke-linejoin:round;stroke:rgb(0%,0%,0%);stroke-opacity:1;stroke-miterlimit:10;" d="M 185.023438 118.140625 L 184.414063 117.792969 L 184.855469 117.765625 L 185.023438 118.140625 "/>
<path style="fill:none;stroke-width:0.75;stroke-linecap:round;stroke-linejoin:round;stroke:rgb(0%,0%,0%);stroke-opacity:1;stroke-miterlimit:10;" d="M 186.917969 119.128906 L 183.765625 116.460938 L 183.632813 116.285156 L 183.597656 115.128906 "/>
<path style="fill:none;stroke-width:0.75;stroke-linecap:round;stroke-linejoin:round;stroke:rgb(0%,0%,0%);stroke-opacity:1;stroke-miterlimit:10;" d="M 299.347656 111.007813 L 299.34375 114.167969 L 299.34375 114.378906 L 297.558594 117.09375 "/>
<path style="fill:none;stroke-width:0.75;stroke-linecap:round;stroke-linejoin:round;stroke:rgb(0%,0%,0%);stroke-opacity:1;stroke-miterlimit:10;" d="M 288.757813 110.554688 L 291.914063 112.539063 L 294.351563 111.898438 L 294.738281 111.984375 L 298.417969 110.949219 L 299.347656 111.007813 "/>
<path style="fill:none;stroke-width:0.75;stroke-linecap:round;stroke-linejoin:round;stroke:rgb(0%,0%,0%);stroke-opacity:1;stroke-miterlimit:10;" d="M 299.347656 111.007813 L 303.613281 110.097656 L 303.246094 112.636719 L 302.59375 114.773438 L 302.507813 115.019531 L 299.898438 119.371094 L 293.558594 127.707031 L 285.570313 135.183594 "/>
<path style="fill:none;stroke-width:0.75;stroke-linecap:round;stroke-linejoin:round;stroke:rgb(0%,0%,0%);stroke-opacity:1;stroke-miterlimit:10;" d="M 220.707031 131.796875 L 220.371094 131.496094 L 220.457031 131.386719 L 220.707031 131.796875 "/>
<path style="fill:none;stroke-width:0.75;stroke-linecap:round;stroke-linejoin:round;stroke:rgb(0%,0%,0%);stroke-opacity:1;stroke-miterlimit:10;" d="M 222.128906 129.09375 L 222.0625 128.882813 L 222.113281 128.847656 L 222.128906 129.09375 "/>
<path style="fill:none;stroke-width:0.75;stroke-linecap:round;stroke-linejoin:round;stroke:rgb(0%,0%,0%);stroke-opacity:1;stroke-miterlimit:10;" d="M 268.050781 182.113281 L 266.492188 182.859375 L 265.597656 181.972656 L 266.367188 180.253906 L 267.746094 180.46875 "/>
<path style="fill:none;stroke-width:0.75;stroke-linecap:round;stroke-linejoin:round;stroke:rgb(0%,0%,0%);stroke-opacity:1;stroke-miterlimit:10;" d="M 311.625 140.78125 L 311.515625 140.78125 L 311.394531 140.699219 L 311.625 140.78125 "/>
<path style="fill:none;stroke-width:0.75;stroke-linecap:round;stroke-linejoin:round;stroke:rgb(0%,0%,0%);stroke-opacity:1;stroke-miterlimit:10;" d="M 211.339844 120.417969 L 210.757813 120.546875 L 210.53125 120.65625 "/>
<path style="fill:none;stroke-width:0.75;stroke-linecap:round;stroke-linejoin:round;stroke:rgb(0%,0%,0%);stroke-opacity:1;stroke-miterlimit:10;" d="M 228.703125 69.082031 L 228.285156 68.832031 L 228.703125 69.082031 "/>
<path style="fill:none;stroke-width:0.75;stroke-linecap:round;stroke-linejoin:round;stroke:rgb(0%,0%,0%);stroke-opacity:1;stroke-miterlimit:10;" d="M 229.296875 67.15625 L 229.066406 67.171875 L 229.253906 67.03125 L 229.296875 67.15625 "/>
<path style="fill:none;stroke-width:0.75;stroke-linecap:round;stroke-linejoin:round;stroke:rgb(0%,0%,0%);stroke-opacity:1;stroke-miterlimit:10;" d="M 224.273438 63.078125 L 227.273438 62.898438 L 228.71875 63.441406 L 228.019531 65.039063 L 228.789063 65.511719 L 227.140625 68.039063 L 229.71875 70.089844 "/>
<path style="fill:none;stroke-width:0.75;stroke-linecap:round;stroke-linejoin:round;stroke:rgb(0%,0%,0%);stroke-opacity:1;stroke-miterlimit:10;" d="M 282.183594 146.910156 L 282.433594 146.449219 L 282.183594 146.910156 "/>
<path style="fill:none;stroke-width:0.75;stroke-linecap:round;stroke-linejoin:round;stroke:rgb(0%,0%,0%);stroke-opacity:1;stroke-miterlimit:10;" d="M 281.785156 143.542969 L 281.3125 143.730469 L 281.199219 143.539063 L 281.246094 143.375 L 281.785156 143.542969 "/>
<path style="fill:none;stroke-width:0.75;stroke-linecap:round;stroke-linejoin:round;stroke:rgb(0%,0%,0%);stroke-opacity:1;stroke-miterlimit:10;" d="M 282.46875 141.175781 L 282.253906 142.179688 L 282.175781 142.152344 L 282.46875 141.175781 "/>
<path style="fill:none;stroke-width:0.75;stroke-linecap:round;stroke-linejoin:round;stroke:rgb(0%,0%,0%);stroke-opacity:1;stroke-miterlimit:10;" d="M 281.273438 140.777344 L 281.09375 144.257813 L 281.65625 146.601563 L 281.753906 148.640625 L 283.582031 151.550781 "/>
<path style="fill:none;stroke-width:0.75;stroke-linecap:round;stroke-linejoin:round;stroke:rgb(0%,0%,0%);stroke-opacity:1;stroke-miterlimit:10;" d="M 269.550781 149.578125 L 267.503906 148.636719 L 267.367188 148.636719 L 265.519531 147.3125 "/>
<path style="fill:none;stroke-width:0.75;stroke-linecap:round;stroke-linejoin:round;stroke:rgb(0%,0%,0%);stroke-opacity:1;stroke-miterlimit:10;" d="M 265.070313 134.011719 L 267.210938 133.890625 L 271.378906 133.890625 "/>
<path style="fill:none;stroke-width:0.75;stroke-linecap:round;stroke-linejoin:round;stroke:rgb(0%,0%,0%);stroke-opacity:1;stroke-miterlimit:10;" d="M 278.734375 219.636719 L 278.347656 219.460938 L 278.414063 219.414063 L 278.734375 219.636719 "/>
<path style="fill:none;stroke-width:0.75;stroke-linecap:round;stroke-linejoin:round;stroke:rgb(0%,0%,0%);stroke-opacity:1;stroke-miterlimit:10;" d="M 269.488281 182.132813 L 267.429688 186.027344 L 259.957031 193.792969 L 253.300781 195.59375 L 252.191406 195.449219 L 246.960938 196.300781 L 246.507813 196.34375 L 245.558594 196.945313 L 243.121094 195.613281 L 242.09375 194.28125 L 242.269531 192.964844 L 238.914063 185.433594 "/>
<path style="fill:none;stroke-width:0.75;stroke-linecap:round;stroke-linejoin:round;stroke:rgb(0%,0%,0%);stroke-opacity:1;stroke-miterlimit:10;" d="M 262.9375 173.445313 L 264.976563 173.695313 L 266.515625 173.832031 "/>
<path style="fill:none;stroke-width:0.75;stroke-linecap:round;stroke-linejoin:round;stroke:rgb(0%,0%,0%);stroke-opacity:1;stroke-miterlimit:10;" d="M 264.859375 161.214844 L 261.949219 162.675781 L 260.707031 163.320313 L 260.273438 163.554688 L 258.980469 165.109375 L 255.300781 165.230469 "/>
</g>
</svg>
